<svg width="483" height="448" viewBox="0 0 483 448" fill="none" xmlns="http://www.w3.org/2000/svg">
<g id="ribbon_light">
<path id="ribbon" d="M307.209 1.64396C317.137 -0.501892 327.695 0.898486 336.332 8.45451C351.149 21.417 353.548 43.5757 351.687 64.7279C349.735 86.9237 342.657 113.068 332.75 139.522C312.866 192.617 249.131 287.601 165.706 354.983C165.954 358.889 166.291 362.139 166.652 364.736C168.704 379.481 175.945 393.334 184.167 406.501C188.567 413.548 195.478 417.237 205.441 419.825C215.799 422.515 232.726 420.992 256.296 416.713C269.119 414.386 285.837 411.071 302.505 403.907C302.154 402.249 301.968 400.55 301.864 398.912C301.6 394.751 301.74 388.956 302.294 380.898C302.96 371.218 306.389 357.888 311.255 344.072C316.209 330.004 322.999 314.453 330.988 300.124C338.9 285.936 348.379 272.234 358.937 262.46C369.187 252.971 383.048 244.904 398.705 248.385C406.396 250.096 412.858 254.275 416.937 260.991C420.756 267.28 421.654 274.431 421.378 280.873C420.835 293.538 415.517 308.285 408.909 322.147C395.503 350.27 373.67 381.046 358.43 397.011C354.91 400.698 351.25 404.077 347.494 407.176C358.427 409.86 374.343 411.384 395.853 411.384C439.941 411.384 439.842 407.961 465.359 404.747C472.556 403.841 479.124 408.94 480.03 416.136C480.936 423.333 475.838 429.902 468.642 430.808C446.541 433.591 442.06 437.651 395.853 437.651C372.856 437.651 354.067 436.016 339.952 432.364C333.121 430.596 326.377 428.092 320.719 424.401C298 435.676 275.376 439.945 260.986 442.557C238.214 446.691 215.644 449.613 198.838 445.247C186.074 441.932 171.458 435.741 161.888 420.413C153.97 407.734 145.086 391.73 141.476 373.354C140.525 374.025 139.578 374.689 138.632 375.344C103.511 399.65 76.8404 416.387 57.5185 427.108C47.8725 432.46 39.8618 436.422 33.4218 439.084C27.511 441.528 21.3253 443.579 16.0009 443.579C8.74755 443.579 2.86715 437.699 2.86715 430.446C2.86733 423.192 8.74767 417.313 16.0009 417.313C15.6933 417.313 17.679 417.169 23.3857 414.81C28.5634 412.669 35.6176 409.22 44.7744 404.14C63.059 393.995 88.9502 377.782 123.684 353.745C128.703 350.271 133.833 346.518 139.041 342.535C138.924 293.906 152.846 239.678 170.311 192.134C188.628 142.268 211.372 98.3404 227.698 74.018C243.76 50.0891 262.132 28.8031 279.676 15.5424C288.39 8.95572 297.761 3.68603 307.209 1.64396ZM393.003 274.026C390.017 273.362 384.771 274.338 376.78 281.736C369.097 288.849 361.201 299.878 353.931 312.916C346.738 325.816 340.541 339.989 336.031 352.796C331.433 365.854 328.921 376.551 328.498 382.701C328.331 385.124 328.216 387.22 328.137 389.029C332.057 386 335.843 382.632 339.43 378.874C352.669 365.005 372.94 336.558 385.198 310.844C391.422 297.787 394.826 286.962 395.136 279.747C395.286 276.251 394.643 274.886 394.485 274.625C394.442 274.554 394.437 274.553 394.394 274.524C394.323 274.475 393.945 274.235 393.003 274.026ZM319.037 28.224C317.983 27.302 316.466 26.5173 312.758 27.3188C308.569 28.2241 302.741 31.0343 295.515 36.4965C281.177 47.3337 264.699 66.0245 249.508 88.6566C234.58 110.896 212.719 152.862 194.966 201.191C180.762 239.857 169.526 281.698 166.267 320.125C237.877 256.878 291.374 175.11 308.151 130.31C317.627 105.006 323.857 81.339 325.521 62.4252C327.277 42.4682 323.602 32.2178 319.037 28.224Z" fill="#FD458E"/>
</g>
</svg>
